<mxfile host="app.diagrams.net" modified="2023-11-14T16:19:39.667Z" agent="Mozilla/5.0 (Windows NT 10.0; Win64; x64) AppleWebKit/537.36 (KHTML, like Gecko) Chrome/119.0.0.0 Safari/537.36" etag="evBoDbKs7EqN1X29B2ZV" version="22.1.1" type="github">
  <diagram name="PÃ¡gina-1" id="D22kC-1IBSKwyaWAMyU8">
    <mxGraphModel dx="1434" dy="790" grid="0" gridSize="10" guides="1" tooltips="1" connect="1" arrows="1" fold="1" page="0" pageScale="1" pageWidth="827" pageHeight="1169" math="0" shadow="0">
      <root>
        <mxCell id="0" />
        <mxCell id="1" parent="0" />
        <mxCell id="LPVRVKIkkjf-93eOcvaG-1" value="Clientes" style="shape=table;startSize=30;container=1;collapsible=1;childLayout=tableLayout;fixedRows=1;rowLines=0;fontStyle=1;align=center;resizeLast=1;html=1;" vertex="1" parent="1">
          <mxGeometry x="320" y="330" width="180" height="240" as="geometry" />
        </mxCell>
        <mxCell id="LPVRVKIkkjf-93eOcvaG-2" value="" style="shape=tableRow;horizontal=0;startSize=0;swimlaneHead=0;swimlaneBody=0;fillColor=none;collapsible=0;dropTarget=0;points=[[0,0.5],[1,0.5]];portConstraint=eastwest;top=0;left=0;right=0;bottom=1;" vertex="1" parent="LPVRVKIkkjf-93eOcvaG-1">
          <mxGeometry y="30" width="180" height="30" as="geometry" />
        </mxCell>
        <mxCell id="LPVRVKIkkjf-93eOcvaG-3" value="PK" style="shape=partialRectangle;connectable=0;fillColor=none;top=0;left=0;bottom=0;right=0;fontStyle=1;overflow=hidden;whiteSpace=wrap;html=1;" vertex="1" parent="LPVRVKIkkjf-93eOcvaG-2">
          <mxGeometry width="41.75" height="30" as="geometry">
            <mxRectangle width="41.75" height="30" as="alternateBounds" />
          </mxGeometry>
        </mxCell>
        <mxCell id="LPVRVKIkkjf-93eOcvaG-4" value="IdCliente" style="shape=partialRectangle;connectable=0;fillColor=none;top=0;left=0;bottom=0;right=0;align=left;spacingLeft=6;fontStyle=5;overflow=hidden;whiteSpace=wrap;html=1;" vertex="1" parent="LPVRVKIkkjf-93eOcvaG-2">
          <mxGeometry x="41.75" width="138.25" height="30" as="geometry">
            <mxRectangle width="138.25" height="30" as="alternateBounds" />
          </mxGeometry>
        </mxCell>
        <mxCell id="LPVRVKIkkjf-93eOcvaG-5" value="" style="shape=tableRow;horizontal=0;startSize=0;swimlaneHead=0;swimlaneBody=0;fillColor=none;collapsible=0;dropTarget=0;points=[[0,0.5],[1,0.5]];portConstraint=eastwest;top=0;left=0;right=0;bottom=0;" vertex="1" parent="LPVRVKIkkjf-93eOcvaG-1">
          <mxGeometry y="60" width="180" height="30" as="geometry" />
        </mxCell>
        <mxCell id="LPVRVKIkkjf-93eOcvaG-6" value="uk, nn" style="shape=partialRectangle;connectable=0;fillColor=none;top=0;left=0;bottom=0;right=0;editable=1;overflow=hidden;whiteSpace=wrap;html=1;" vertex="1" parent="LPVRVKIkkjf-93eOcvaG-5">
          <mxGeometry width="41.75" height="30" as="geometry">
            <mxRectangle width="41.75" height="30" as="alternateBounds" />
          </mxGeometry>
        </mxCell>
        <mxCell id="LPVRVKIkkjf-93eOcvaG-7" value="Codigo" style="shape=partialRectangle;connectable=0;fillColor=none;top=0;left=0;bottom=0;right=0;align=left;spacingLeft=6;overflow=hidden;whiteSpace=wrap;html=1;" vertex="1" parent="LPVRVKIkkjf-93eOcvaG-5">
          <mxGeometry x="41.75" width="138.25" height="30" as="geometry">
            <mxRectangle width="138.25" height="30" as="alternateBounds" />
          </mxGeometry>
        </mxCell>
        <mxCell id="LPVRVKIkkjf-93eOcvaG-20" value="" style="shape=tableRow;horizontal=0;startSize=0;swimlaneHead=0;swimlaneBody=0;fillColor=none;collapsible=0;dropTarget=0;points=[[0,0.5],[1,0.5]];portConstraint=eastwest;top=0;left=0;right=0;bottom=0;" vertex="1" parent="LPVRVKIkkjf-93eOcvaG-1">
          <mxGeometry y="90" width="180" height="30" as="geometry" />
        </mxCell>
        <mxCell id="LPVRVKIkkjf-93eOcvaG-21" value="uk, nn" style="shape=partialRectangle;connectable=0;fillColor=none;top=0;left=0;bottom=0;right=0;editable=1;overflow=hidden;whiteSpace=wrap;html=1;" vertex="1" parent="LPVRVKIkkjf-93eOcvaG-20">
          <mxGeometry width="41.75" height="30" as="geometry">
            <mxRectangle width="41.75" height="30" as="alternateBounds" />
          </mxGeometry>
        </mxCell>
        <mxCell id="LPVRVKIkkjf-93eOcvaG-22" value="NIF" style="shape=partialRectangle;connectable=0;fillColor=none;top=0;left=0;bottom=0;right=0;align=left;spacingLeft=6;overflow=hidden;whiteSpace=wrap;html=1;" vertex="1" parent="LPVRVKIkkjf-93eOcvaG-20">
          <mxGeometry x="41.75" width="138.25" height="30" as="geometry">
            <mxRectangle width="138.25" height="30" as="alternateBounds" />
          </mxGeometry>
        </mxCell>
        <mxCell id="LPVRVKIkkjf-93eOcvaG-8" value="" style="shape=tableRow;horizontal=0;startSize=0;swimlaneHead=0;swimlaneBody=0;fillColor=none;collapsible=0;dropTarget=0;points=[[0,0.5],[1,0.5]];portConstraint=eastwest;top=0;left=0;right=0;bottom=0;" vertex="1" parent="LPVRVKIkkjf-93eOcvaG-1">
          <mxGeometry y="120" width="180" height="30" as="geometry" />
        </mxCell>
        <mxCell id="LPVRVKIkkjf-93eOcvaG-9" value="nn" style="shape=partialRectangle;connectable=0;fillColor=none;top=0;left=0;bottom=0;right=0;editable=1;overflow=hidden;whiteSpace=wrap;html=1;" vertex="1" parent="LPVRVKIkkjf-93eOcvaG-8">
          <mxGeometry width="41.75" height="30" as="geometry">
            <mxRectangle width="41.75" height="30" as="alternateBounds" />
          </mxGeometry>
        </mxCell>
        <mxCell id="LPVRVKIkkjf-93eOcvaG-10" value="Nombre" style="shape=partialRectangle;connectable=0;fillColor=none;top=0;left=0;bottom=0;right=0;align=left;spacingLeft=6;overflow=hidden;whiteSpace=wrap;html=1;" vertex="1" parent="LPVRVKIkkjf-93eOcvaG-8">
          <mxGeometry x="41.75" width="138.25" height="30" as="geometry">
            <mxRectangle width="138.25" height="30" as="alternateBounds" />
          </mxGeometry>
        </mxCell>
        <mxCell id="LPVRVKIkkjf-93eOcvaG-11" value="" style="shape=tableRow;horizontal=0;startSize=0;swimlaneHead=0;swimlaneBody=0;fillColor=none;collapsible=0;dropTarget=0;points=[[0,0.5],[1,0.5]];portConstraint=eastwest;top=0;left=0;right=0;bottom=0;" vertex="1" parent="LPVRVKIkkjf-93eOcvaG-1">
          <mxGeometry y="150" width="180" height="30" as="geometry" />
        </mxCell>
        <mxCell id="LPVRVKIkkjf-93eOcvaG-12" value="nn" style="shape=partialRectangle;connectable=0;fillColor=none;top=0;left=0;bottom=0;right=0;editable=1;overflow=hidden;whiteSpace=wrap;html=1;" vertex="1" parent="LPVRVKIkkjf-93eOcvaG-11">
          <mxGeometry width="41.75" height="30" as="geometry">
            <mxRectangle width="41.75" height="30" as="alternateBounds" />
          </mxGeometry>
        </mxCell>
        <mxCell id="LPVRVKIkkjf-93eOcvaG-13" value="Direccion" style="shape=partialRectangle;connectable=0;fillColor=none;top=0;left=0;bottom=0;right=0;align=left;spacingLeft=6;overflow=hidden;whiteSpace=wrap;html=1;" vertex="1" parent="LPVRVKIkkjf-93eOcvaG-11">
          <mxGeometry x="41.75" width="138.25" height="30" as="geometry">
            <mxRectangle width="138.25" height="30" as="alternateBounds" />
          </mxGeometry>
        </mxCell>
        <mxCell id="LPVRVKIkkjf-93eOcvaG-14" value="" style="shape=tableRow;horizontal=0;startSize=0;swimlaneHead=0;swimlaneBody=0;fillColor=none;collapsible=0;dropTarget=0;points=[[0,0.5],[1,0.5]];portConstraint=eastwest;top=0;left=0;right=0;bottom=0;" vertex="1" parent="LPVRVKIkkjf-93eOcvaG-1">
          <mxGeometry y="180" width="180" height="30" as="geometry" />
        </mxCell>
        <mxCell id="LPVRVKIkkjf-93eOcvaG-15" value="nn" style="shape=partialRectangle;connectable=0;fillColor=none;top=0;left=0;bottom=0;right=0;editable=1;overflow=hidden;whiteSpace=wrap;html=1;" vertex="1" parent="LPVRVKIkkjf-93eOcvaG-14">
          <mxGeometry width="41.75" height="30" as="geometry">
            <mxRectangle width="41.75" height="30" as="alternateBounds" />
          </mxGeometry>
        </mxCell>
        <mxCell id="LPVRVKIkkjf-93eOcvaG-16" value="Ciudad" style="shape=partialRectangle;connectable=0;fillColor=none;top=0;left=0;bottom=0;right=0;align=left;spacingLeft=6;overflow=hidden;whiteSpace=wrap;html=1;" vertex="1" parent="LPVRVKIkkjf-93eOcvaG-14">
          <mxGeometry x="41.75" width="138.25" height="30" as="geometry">
            <mxRectangle width="138.25" height="30" as="alternateBounds" />
          </mxGeometry>
        </mxCell>
        <mxCell id="LPVRVKIkkjf-93eOcvaG-17" value="" style="shape=tableRow;horizontal=0;startSize=0;swimlaneHead=0;swimlaneBody=0;fillColor=none;collapsible=0;dropTarget=0;points=[[0,0.5],[1,0.5]];portConstraint=eastwest;top=0;left=0;right=0;bottom=0;" vertex="1" parent="LPVRVKIkkjf-93eOcvaG-1">
          <mxGeometry y="210" width="180" height="30" as="geometry" />
        </mxCell>
        <mxCell id="LPVRVKIkkjf-93eOcvaG-18" value="nn" style="shape=partialRectangle;connectable=0;fillColor=none;top=0;left=0;bottom=0;right=0;editable=1;overflow=hidden;whiteSpace=wrap;html=1;" vertex="1" parent="LPVRVKIkkjf-93eOcvaG-17">
          <mxGeometry width="41.75" height="30" as="geometry">
            <mxRectangle width="41.75" height="30" as="alternateBounds" />
          </mxGeometry>
        </mxCell>
        <mxCell id="LPVRVKIkkjf-93eOcvaG-19" value="Telefono" style="shape=partialRectangle;connectable=0;fillColor=none;top=0;left=0;bottom=0;right=0;align=left;spacingLeft=6;overflow=hidden;whiteSpace=wrap;html=1;" vertex="1" parent="LPVRVKIkkjf-93eOcvaG-17">
          <mxGeometry x="41.75" width="138.25" height="30" as="geometry">
            <mxRectangle width="138.25" height="30" as="alternateBounds" />
          </mxGeometry>
        </mxCell>
        <mxCell id="LPVRVKIkkjf-93eOcvaG-23" value="Coches" style="shape=table;startSize=30;container=1;collapsible=1;childLayout=tableLayout;fixedRows=1;rowLines=0;fontStyle=1;align=center;resizeLast=1;html=1;" vertex="1" parent="1">
          <mxGeometry x="324" y="701" width="180" height="240" as="geometry" />
        </mxCell>
        <mxCell id="LPVRVKIkkjf-93eOcvaG-24" value="" style="shape=tableRow;horizontal=0;startSize=0;swimlaneHead=0;swimlaneBody=0;fillColor=none;collapsible=0;dropTarget=0;points=[[0,0.5],[1,0.5]];portConstraint=eastwest;top=0;left=0;right=0;bottom=1;" vertex="1" parent="LPVRVKIkkjf-93eOcvaG-23">
          <mxGeometry y="30" width="180" height="30" as="geometry" />
        </mxCell>
        <mxCell id="LPVRVKIkkjf-93eOcvaG-25" value="PK" style="shape=partialRectangle;connectable=0;fillColor=none;top=0;left=0;bottom=0;right=0;fontStyle=1;overflow=hidden;whiteSpace=wrap;html=1;" vertex="1" parent="LPVRVKIkkjf-93eOcvaG-24">
          <mxGeometry width="38.75" height="30" as="geometry">
            <mxRectangle width="38.75" height="30" as="alternateBounds" />
          </mxGeometry>
        </mxCell>
        <mxCell id="LPVRVKIkkjf-93eOcvaG-26" value="IdCoche" style="shape=partialRectangle;connectable=0;fillColor=none;top=0;left=0;bottom=0;right=0;align=left;spacingLeft=6;fontStyle=5;overflow=hidden;whiteSpace=wrap;html=1;" vertex="1" parent="LPVRVKIkkjf-93eOcvaG-24">
          <mxGeometry x="38.75" width="141.25" height="30" as="geometry">
            <mxRectangle width="141.25" height="30" as="alternateBounds" />
          </mxGeometry>
        </mxCell>
        <mxCell id="LPVRVKIkkjf-93eOcvaG-27" value="" style="shape=tableRow;horizontal=0;startSize=0;swimlaneHead=0;swimlaneBody=0;fillColor=none;collapsible=0;dropTarget=0;points=[[0,0.5],[1,0.5]];portConstraint=eastwest;top=0;left=0;right=0;bottom=0;" vertex="1" parent="LPVRVKIkkjf-93eOcvaG-23">
          <mxGeometry y="60" width="180" height="30" as="geometry" />
        </mxCell>
        <mxCell id="LPVRVKIkkjf-93eOcvaG-28" value="fk, nn" style="shape=partialRectangle;connectable=0;fillColor=none;top=0;left=0;bottom=0;right=0;editable=1;overflow=hidden;whiteSpace=wrap;html=1;" vertex="1" parent="LPVRVKIkkjf-93eOcvaG-27">
          <mxGeometry width="38.75" height="30" as="geometry">
            <mxRectangle width="38.75" height="30" as="alternateBounds" />
          </mxGeometry>
        </mxCell>
        <mxCell id="LPVRVKIkkjf-93eOcvaG-29" value="IdCliente" style="shape=partialRectangle;connectable=0;fillColor=none;top=0;left=0;bottom=0;right=0;align=left;spacingLeft=6;overflow=hidden;whiteSpace=wrap;html=1;" vertex="1" parent="LPVRVKIkkjf-93eOcvaG-27">
          <mxGeometry x="38.75" width="141.25" height="30" as="geometry">
            <mxRectangle width="141.25" height="30" as="alternateBounds" />
          </mxGeometry>
        </mxCell>
        <mxCell id="LPVRVKIkkjf-93eOcvaG-42" value="" style="shape=tableRow;horizontal=0;startSize=0;swimlaneHead=0;swimlaneBody=0;fillColor=none;collapsible=0;dropTarget=0;points=[[0,0.5],[1,0.5]];portConstraint=eastwest;top=0;left=0;right=0;bottom=0;" vertex="1" parent="LPVRVKIkkjf-93eOcvaG-23">
          <mxGeometry y="90" width="180" height="30" as="geometry" />
        </mxCell>
        <mxCell id="LPVRVKIkkjf-93eOcvaG-43" value="nn" style="shape=partialRectangle;connectable=0;fillColor=none;top=0;left=0;bottom=0;right=0;editable=1;overflow=hidden;whiteSpace=wrap;html=1;" vertex="1" parent="LPVRVKIkkjf-93eOcvaG-42">
          <mxGeometry width="38.75" height="30" as="geometry">
            <mxRectangle width="38.75" height="30" as="alternateBounds" />
          </mxGeometry>
        </mxCell>
        <mxCell id="LPVRVKIkkjf-93eOcvaG-44" value="Matricula" style="shape=partialRectangle;connectable=0;fillColor=none;top=0;left=0;bottom=0;right=0;align=left;spacingLeft=6;overflow=hidden;whiteSpace=wrap;html=1;" vertex="1" parent="LPVRVKIkkjf-93eOcvaG-42">
          <mxGeometry x="38.75" width="141.25" height="30" as="geometry">
            <mxRectangle width="141.25" height="30" as="alternateBounds" />
          </mxGeometry>
        </mxCell>
        <mxCell id="LPVRVKIkkjf-93eOcvaG-30" value="" style="shape=tableRow;horizontal=0;startSize=0;swimlaneHead=0;swimlaneBody=0;fillColor=none;collapsible=0;dropTarget=0;points=[[0,0.5],[1,0.5]];portConstraint=eastwest;top=0;left=0;right=0;bottom=0;" vertex="1" parent="LPVRVKIkkjf-93eOcvaG-23">
          <mxGeometry y="120" width="180" height="30" as="geometry" />
        </mxCell>
        <mxCell id="LPVRVKIkkjf-93eOcvaG-31" value="nn" style="shape=partialRectangle;connectable=0;fillColor=none;top=0;left=0;bottom=0;right=0;editable=1;overflow=hidden;whiteSpace=wrap;html=1;" vertex="1" parent="LPVRVKIkkjf-93eOcvaG-30">
          <mxGeometry width="38.75" height="30" as="geometry">
            <mxRectangle width="38.75" height="30" as="alternateBounds" />
          </mxGeometry>
        </mxCell>
        <mxCell id="LPVRVKIkkjf-93eOcvaG-32" value="Marca" style="shape=partialRectangle;connectable=0;fillColor=none;top=0;left=0;bottom=0;right=0;align=left;spacingLeft=6;overflow=hidden;whiteSpace=wrap;html=1;" vertex="1" parent="LPVRVKIkkjf-93eOcvaG-30">
          <mxGeometry x="38.75" width="141.25" height="30" as="geometry">
            <mxRectangle width="141.25" height="30" as="alternateBounds" />
          </mxGeometry>
        </mxCell>
        <mxCell id="LPVRVKIkkjf-93eOcvaG-33" value="" style="shape=tableRow;horizontal=0;startSize=0;swimlaneHead=0;swimlaneBody=0;fillColor=none;collapsible=0;dropTarget=0;points=[[0,0.5],[1,0.5]];portConstraint=eastwest;top=0;left=0;right=0;bottom=0;" vertex="1" parent="LPVRVKIkkjf-93eOcvaG-23">
          <mxGeometry y="150" width="180" height="30" as="geometry" />
        </mxCell>
        <mxCell id="LPVRVKIkkjf-93eOcvaG-34" value="nn" style="shape=partialRectangle;connectable=0;fillColor=none;top=0;left=0;bottom=0;right=0;editable=1;overflow=hidden;whiteSpace=wrap;html=1;" vertex="1" parent="LPVRVKIkkjf-93eOcvaG-33">
          <mxGeometry width="38.75" height="30" as="geometry">
            <mxRectangle width="38.75" height="30" as="alternateBounds" />
          </mxGeometry>
        </mxCell>
        <mxCell id="LPVRVKIkkjf-93eOcvaG-35" value="Modelo" style="shape=partialRectangle;connectable=0;fillColor=none;top=0;left=0;bottom=0;right=0;align=left;spacingLeft=6;overflow=hidden;whiteSpace=wrap;html=1;" vertex="1" parent="LPVRVKIkkjf-93eOcvaG-33">
          <mxGeometry x="38.75" width="141.25" height="30" as="geometry">
            <mxRectangle width="141.25" height="30" as="alternateBounds" />
          </mxGeometry>
        </mxCell>
        <mxCell id="LPVRVKIkkjf-93eOcvaG-36" value="" style="shape=tableRow;horizontal=0;startSize=0;swimlaneHead=0;swimlaneBody=0;fillColor=none;collapsible=0;dropTarget=0;points=[[0,0.5],[1,0.5]];portConstraint=eastwest;top=0;left=0;right=0;bottom=0;" vertex="1" parent="LPVRVKIkkjf-93eOcvaG-23">
          <mxGeometry y="180" width="180" height="30" as="geometry" />
        </mxCell>
        <mxCell id="LPVRVKIkkjf-93eOcvaG-37" value="nn" style="shape=partialRectangle;connectable=0;fillColor=none;top=0;left=0;bottom=0;right=0;editable=1;overflow=hidden;whiteSpace=wrap;html=1;" vertex="1" parent="LPVRVKIkkjf-93eOcvaG-36">
          <mxGeometry width="38.75" height="30" as="geometry">
            <mxRectangle width="38.75" height="30" as="alternateBounds" />
          </mxGeometry>
        </mxCell>
        <mxCell id="LPVRVKIkkjf-93eOcvaG-38" value="Color" style="shape=partialRectangle;connectable=0;fillColor=none;top=0;left=0;bottom=0;right=0;align=left;spacingLeft=6;overflow=hidden;whiteSpace=wrap;html=1;" vertex="1" parent="LPVRVKIkkjf-93eOcvaG-36">
          <mxGeometry x="38.75" width="141.25" height="30" as="geometry">
            <mxRectangle width="141.25" height="30" as="alternateBounds" />
          </mxGeometry>
        </mxCell>
        <mxCell id="LPVRVKIkkjf-93eOcvaG-39" value="" style="shape=tableRow;horizontal=0;startSize=0;swimlaneHead=0;swimlaneBody=0;fillColor=none;collapsible=0;dropTarget=0;points=[[0,0.5],[1,0.5]];portConstraint=eastwest;top=0;left=0;right=0;bottom=0;" vertex="1" parent="LPVRVKIkkjf-93eOcvaG-23">
          <mxGeometry y="210" width="180" height="30" as="geometry" />
        </mxCell>
        <mxCell id="LPVRVKIkkjf-93eOcvaG-40" value="nn" style="shape=partialRectangle;connectable=0;fillColor=none;top=0;left=0;bottom=0;right=0;editable=1;overflow=hidden;whiteSpace=wrap;html=1;" vertex="1" parent="LPVRVKIkkjf-93eOcvaG-39">
          <mxGeometry width="38.75" height="30" as="geometry">
            <mxRectangle width="38.75" height="30" as="alternateBounds" />
          </mxGeometry>
        </mxCell>
        <mxCell id="LPVRVKIkkjf-93eOcvaG-41" value="Precio" style="shape=partialRectangle;connectable=0;fillColor=none;top=0;left=0;bottom=0;right=0;align=left;spacingLeft=6;overflow=hidden;whiteSpace=wrap;html=1;" vertex="1" parent="LPVRVKIkkjf-93eOcvaG-39">
          <mxGeometry x="38.75" width="141.25" height="30" as="geometry">
            <mxRectangle width="141.25" height="30" as="alternateBounds" />
          </mxGeometry>
        </mxCell>
        <mxCell id="LPVRVKIkkjf-93eOcvaG-45" value="" style="edgeStyle=entityRelationEdgeStyle;fontSize=12;html=1;endArrow=ERzeroToOne;rounded=0;endFill=0;startArrow=ERzeroToMany;startFill=0;" edge="1" parent="1" source="LPVRVKIkkjf-93eOcvaG-27" target="LPVRVKIkkjf-93eOcvaG-2">
          <mxGeometry width="100" height="100" relative="1" as="geometry">
            <mxPoint x="382" y="656" as="sourcePoint" />
            <mxPoint x="482" y="556" as="targetPoint" />
          </mxGeometry>
        </mxCell>
      </root>
    </mxGraphModel>
  </diagram>
</mxfile>
